<svg width="1194" height="320" viewBox="0 0 1194 320" fill="none" xmlns="http://www.w3.org/2000/svg">
<path d="M324 146.56V139.61H342.08V147.95C342.08 156.64 345.9 159.77 351.99 159.77C358.08 159.77 362.07 156.64 362.07 147.6C362.07 137.52 357.9 131.26 345.38 120.31C329.39 106.23 324 96.15 324 82.24C324 63.12 333.91 52 352.51 52C371.11 52 380.32 63.12 380.32 82.59V87.63H362.24V81.37C362.24 72.68 358.76 69.38 352.68 69.38C346.6 69.38 342.95 72.68 342.95 81.03C342.95 89.89 347.3 96.15 359.81 107.1C375.8 121.18 381.02 131.09 381.02 146.21C381.02 166.03 370.94 177.15 352.17 177.15C333.4 177.15 324.01 166.03 324.01 146.56H324Z" fill="black"/>
<path d="M445.15 86.76V175.41H429.16L428.81 165.16C425.68 172.81 419.25 177.15 411.08 177.15C398.74 177.15 391.26 169.5 391.26 151.25V86.76H409.68V149.16C409.68 156.81 411.77 160.81 417.33 160.81C422.54 160.81 426.72 157.16 426.72 146.56V86.77H445.14L445.15 86.76Z" fill="black"/>
<path d="M498.16 86.07V103.97C496.77 103.62 495.03 103.45 493.47 103.45C483.22 103.45 477.83 110.58 477.83 124.31V175.41H459.41V86.76H475.4L475.75 101.71C478.18 90.59 483.92 85.02 492.96 85.02C495.22 85.02 496.78 85.37 498.17 86.06L498.16 86.07Z" fill="black"/>
<path d="M559.17 113.88V135.09H523.02V150.04C523.02 157.86 526.15 160.82 532.23 160.82C538.31 160.82 541.44 157.87 541.44 150.04V146.74H559.17V148.3C559.17 166.72 549.61 177.15 531.88 177.15C514.15 177.15 504.59 166.72 504.59 148.3V113.88C504.59 95.46 514.15 85.03 531.88 85.03C549.61 85.03 559.17 95.46 559.17 113.88ZM541.09 120.48V112.14C541.09 104.32 537.79 101.36 532.05 101.36C526.31 101.36 523.01 104.31 523.01 112.14V120.48H541.09Z" fill="black"/>
<path d="M571.34 53.74H600.54C619.66 53.74 629.05 64.34 629.05 83.81V145.34C629.05 164.81 619.66 175.41 600.54 175.41H571.34V53.74ZM600.19 158.03C606.27 158.03 609.92 154.9 609.92 146.21V82.94C609.92 74.25 606.27 71.12 600.19 71.12H590.46V158.03H600.19Z" fill="black"/>
<path d="M680.67 86.07V103.97C679.28 103.62 677.54 103.45 675.98 103.45C665.72 103.45 660.34 110.58 660.34 124.31V175.41H641.92V86.76H657.91L658.26 101.71C660.69 90.59 666.43 85.02 675.47 85.02C677.73 85.02 679.29 85.37 680.68 86.06L680.67 86.07Z" fill="black"/>
<path d="M689.18 55.65H707.6V75.81H689.18V55.65ZM689.18 86.76H707.6V175.41H689.18V86.76Z" fill="black"/>
<path d="M716.82 86.76H735.59L746.89 150.55L758.01 86.76H775.22L757.32 175.41H734.72L716.82 86.76Z" fill="black"/>
<path d="M836.75 113.88V135.09H800.6V150.04C800.6 157.86 803.73 160.82 809.81 160.82C815.89 160.82 819.02 157.87 819.02 150.04V146.74H836.75V148.3C836.75 166.72 827.19 177.15 809.46 177.15C791.73 177.15 782.17 166.72 782.17 148.3V113.88C782.17 95.46 791.73 85.03 809.46 85.03C827.19 85.03 836.75 95.46 836.75 113.88ZM818.67 120.48V112.14C818.67 104.32 815.37 101.36 809.63 101.36C803.89 101.36 800.59 104.31 800.59 112.14V120.48H818.67Z" fill="black"/>
<path d="M914.62 151.6H892.54L889.24 175.41H871.51L891.32 53.74H917.22L937.04 175.41H917.92L914.62 151.6ZM912.18 135.09L903.49 73.73L894.97 135.09H912.18Z" fill="black"/>
<path d="M942.6 150.03V147.25H960.33V150.55C960.33 158.55 963.81 161.33 968.5 161.33C973.19 161.33 976.5 158.72 976.5 151.77C976.5 144.82 970.59 141.69 963.64 137.69C954.25 132.3 943.48 126.22 943.48 109.53C943.48 94.76 952 85.02 968.34 85.02C983.46 85.02 993.2 94.75 993.2 110.92V112.83H975.82V110.4C975.82 103.27 973.04 100.84 968.52 100.84C964.7 100.84 961.39 103.1 961.39 109.18C961.39 116.48 967.65 120.3 974.95 124.3C984.34 129.51 994.77 135.6 994.77 151.42C994.77 167.24 986.25 177.15 969.39 177.15C952.53 177.15 942.62 167.07 942.62 150.03H942.6Z" fill="black"/>
<path d="M1002.04 150.03V147.25H1019.77V150.55C1019.77 158.55 1023.25 161.33 1027.94 161.33C1032.63 161.33 1035.94 158.72 1035.94 151.77C1035.94 144.82 1030.03 141.69 1023.08 137.69C1013.69 132.3 1002.92 126.22 1002.92 109.53C1002.92 94.76 1011.44 85.02 1027.78 85.02C1042.9 85.02 1052.64 94.75 1052.64 110.92V112.83H1035.26V110.4C1035.26 103.27 1032.48 100.84 1027.96 100.84C1024.14 100.84 1020.83 103.1 1020.83 109.18C1020.83 116.48 1027.09 120.3 1034.39 124.3C1043.78 129.51 1054.21 135.6 1054.21 151.42C1054.21 167.24 1045.69 177.15 1028.83 177.15C1011.97 177.15 1002.06 167.07 1002.06 150.03H1002.04Z" fill="black"/>
<path d="M1064.96 55.65H1083.38V75.81H1064.96V55.65ZM1064.96 86.76H1083.38V175.41H1064.96V86.76Z" fill="black"/>
<path d="M1094.16 150.03V147.25H1111.89V150.55C1111.89 158.55 1115.37 161.33 1120.06 161.33C1124.75 161.33 1128.06 158.72 1128.06 151.77C1128.06 144.82 1122.15 141.69 1115.2 137.69C1105.81 132.3 1095.04 126.22 1095.04 109.53C1095.04 94.76 1103.56 85.02 1119.9 85.02C1135.02 85.02 1144.76 94.75 1144.76 110.92V112.83H1127.38V110.4C1127.38 103.27 1124.6 100.84 1120.08 100.84C1116.26 100.84 1112.95 103.1 1112.95 109.18C1112.95 116.48 1119.21 120.3 1126.51 124.3C1135.9 129.51 1146.32 135.6 1146.32 151.42C1146.32 167.24 1137.8 177.15 1120.94 177.15C1104.08 177.15 1094.17 167.07 1094.17 150.03H1094.16Z" fill="black"/>
<path d="M1179.85 102.41V153.16C1179.85 158.72 1181.76 160.81 1186.98 160.81C1188.89 160.81 1190.98 160.46 1193.24 159.77V175.41C1190.11 176.63 1186.98 177.15 1183.16 177.15C1168.56 177.15 1161.43 170.02 1161.43 155.6V102.41H1151.35V86.77H1162.3L1164.04 62.78H1179.86V86.77H1193.24V102.41H1179.86H1179.85Z" fill="black"/>
<path d="M324 193.54H335.38V218.04H347.58V193.54H358.96V253.71H347.58V226.63H335.38V253.71H324V193.54Z" fill="#FF1515"/>
<path d="M398.88 223.29V233.78H377.37V241.17C377.37 245.04 379.23 246.5 382.85 246.5C386.47 246.5 388.33 245.04 388.33 241.17V239.54H398.88V240.31C398.88 249.42 393.19 254.58 382.64 254.58C372.09 254.58 366.4 249.42 366.4 240.31V223.29C366.4 214.18 372.09 209.02 382.64 209.02C393.19 209.02 398.88 214.18 398.88 223.29ZM388.13 226.55V222.42C388.13 218.55 386.16 217.09 382.75 217.09C379.34 217.09 377.37 218.55 377.37 222.42V226.55H388.13Z" fill="#FF1515"/>
<path d="M406.12 193.54H417.08V253.71H406.12V193.54Z" fill="#FF1515"/>
<path d="M457.83 221.83V241.77C457.83 250.8 453.18 254.58 445.83 254.58C441.9 254.58 438.69 253.12 436.52 250.54V267.04H425.56V209.88H435.08L435.29 215.04C437.15 211.26 441.08 209.02 445.84 209.02C453.18 209.02 457.84 212.8 457.84 221.83H457.83ZM446.87 222.43C446.87 219.42 445.84 217.1 442.22 217.1C439.12 217.1 436.53 218.99 436.53 224.15V239.45C436.53 244.61 439.12 246.5 442.22 246.5C445.84 246.5 446.87 244.18 446.87 241.17V222.43Z" fill="#FF1515"/>
<path d="M503.44 253.72C503.13 253.2 502.72 251.31 502.61 248.56C500.64 252.43 496.71 254.58 491.44 254.58C484.41 254.58 479.96 250.37 479.96 243.58C479.96 236.79 483.37 232.75 492.68 228.97C500.23 225.88 501.26 225.1 501.26 222.7V221.84C501.26 218.32 499.92 216.85 496.81 216.85C493.4 216.85 491.85 218.66 491.85 221.92V223.55H481.51V222.43C481.51 213.92 486.78 209.02 496.92 209.02C507.88 209.02 512.23 213.83 512.23 223.46V241.08C512.23 247.27 512.75 251.22 513.47 253.72H503.44ZM501.27 239.45V231.97C500.44 232.83 498.79 233.69 495.89 235.24C492.58 236.96 490.93 239.19 490.93 242.03C490.93 245.12 492.48 246.76 495.58 246.76C499.3 246.76 501.27 244.27 501.27 239.45Z" fill="#FF1515"/>
<path d="M534.16 217.61V242.71C534.16 245.46 535.3 246.49 538.4 246.49C539.54 246.49 540.78 246.32 542.12 245.97V253.71C540.26 254.31 538.4 254.57 536.12 254.57C527.43 254.57 523.19 251.05 523.19 243.91V217.61H517.19V209.87H523.71L524.74 198.01H534.15V209.87H542.11V217.61H534.15H534.16Z" fill="#FF1515"/>
<path d="M564.77 193.54H595.8V202.14H576.15V218.04H591.77V226.64H576.15V245.12H595.8V253.72H564.77V193.55V193.54Z" fill="#FF1515"/>
<path d="M598.9 209.88H610.07L616.79 241.43L623.41 209.88H633.65L623 253.72H609.55L598.9 209.88Z" fill="#FF1515"/>
<path d="M670.26 223.29V233.78H648.75V241.17C648.75 245.04 650.61 246.5 654.23 246.5C657.85 246.5 659.71 245.04 659.71 241.17V239.54H670.26V240.31C670.26 249.42 664.57 254.58 654.02 254.58C643.47 254.58 637.78 249.42 637.78 240.31V223.29C637.78 214.18 643.47 209.02 654.02 209.02C664.57 209.02 670.26 214.18 670.26 223.29ZM659.51 226.55V222.42C659.51 218.55 657.55 217.09 654.13 217.09C650.71 217.09 648.75 218.55 648.75 222.42V226.55H659.51Z" fill="#FF1515"/>
<path d="M700.57 209.53V218.38C699.74 218.21 698.71 218.12 697.78 218.12C691.68 218.12 688.47 221.64 688.47 228.43V253.7H677.51V209.86H687.03L687.24 217.25C688.69 211.75 692.1 209 697.48 209C698.82 209 699.76 209.17 700.58 209.52L700.57 209.53Z" fill="#FF1515"/>
<path d="M706.05 267.04V259.3C707.29 259.64 708.64 259.82 710.08 259.82C713.8 259.82 715.15 258.96 715.87 256.12L716.08 255.52L703.36 209.88H714.53L721.56 240.05L727.87 209.88H738.11L726.42 257.5C724.56 264.98 720.42 267.9 711.94 267.9C709.97 267.9 707.91 267.73 706.04 267.04H706.05Z" fill="#FF1515"/>
<path d="M760.14 193.54H776.17L783.72 237.21L791.27 193.54H807.3V253.71H796.54V208.15L788.06 253.71H778.55L770.07 208.15V253.71H760.14V193.54Z" fill="#FF1515"/>
<path d="M815.78 194.49H826.74V204.46H815.78V194.49ZM815.78 209.88H826.74V253.72H815.78V209.88Z" fill="#FF1515"/>
<path d="M835.22 193.54H846.18V253.71H835.22V193.54Z" fill="#FF1515"/>
<path d="M886.11 223.29V233.78H864.6V241.17C864.6 245.04 866.46 246.5 870.08 246.5C873.7 246.5 875.56 245.04 875.56 241.17V239.54H886.11V240.31C886.11 249.42 880.42 254.58 869.87 254.58C859.32 254.58 853.63 249.42 853.63 240.31V223.29C853.63 214.18 859.32 209.02 869.87 209.02C880.42 209.02 886.11 214.18 886.11 223.29ZM875.35 226.55V222.42C875.35 218.55 873.39 217.09 869.97 217.09C866.55 217.09 864.59 218.55 864.59 222.42V226.55H875.35Z" fill="#FF1515"/>
<path d="M241.958 99.9483L227.231 85.2213C147.82 96.7736 56.6173 129.822 42.2754 219.304L142.018 319.047L153.014 308.051C138.57 282.79 122.397 248.065 124.818 217.978H149.677C149.891 218.149 150.088 218.312 150.25 218.509C152.972 224.345 161.058 247.09 176.538 269.749C178.489 272.616 180.569 275.474 182.759 278.306C203.057 258.009 251.91 209.156 271.6 189.465C288.133 172.933 288.133 146.132 271.6 129.599L241.958 99.9569V99.9483ZM144.953 205.698H123.398C123.398 205.698 123.372 205.673 123.355 205.656C122.919 194.951 123.928 182.936 127.839 170.622H141.933C140.469 180.925 141.12 192.512 145.125 205.339C145.099 205.459 145.022 205.57 144.953 205.698ZM144.714 158.617H132.58C135.078 153.388 138.193 148.168 141.984 143.034H151.791C149.01 147.74 146.562 152.935 144.722 158.617H144.714ZM157.772 134.211H149.36C152.792 130.515 156.643 126.904 160.964 123.404H167.459C164.293 126.467 160.964 130.07 157.772 134.211ZM174.964 116.806H169.829C172.61 114.906 175.554 113.041 178.669 111.244C179.345 111.03 180.047 110.884 180.757 110.842L183.316 110.936C183.316 110.936 179.893 112.93 174.955 116.806H174.964ZM240.11 206.169L232.083 214.196C185.472 177.357 166.646 134.066 231.484 104.261L262.881 135.658C276.067 148.844 276.067 170.212 262.881 183.398L240.11 206.169Z" fill="black"/>
<path d="M29.0375 206.066C48.3512 121.94 131.51 85.17 213.565 71.5555C211.649 69.6386 146.468 4.45831 142.01 0L12.4194 129.591C-4.11312 146.123 -4.11312 172.924 12.4194 189.457C14.7042 191.733 27.0095 204.047 29.029 206.066H29.0375Z" fill="#FF1515"/>
</svg>
